<svg width="40" height="38" viewBox="0 0 40 38" fill="none" xmlns="http://www.w3.org/2000/svg">
<title>Preset</title>
<path d="M23.164 13.2244H10.9797L0 37.0293H7.08292L15.1031 19.705H23.1615C24.9468 19.705 26.3935 18.2541 26.3935 16.4634C26.3935 14.6728 24.9468 13.2218 23.1615 13.2218L23.164 13.2244ZM23.164 0H15.6074L12.6097 6.48064H23.164C28.6526 6.48064 33.1173 10.9586 33.1173 16.4634C33.1173 21.9683 28.6526 26.4462 23.164 26.4462H19.0508L16.0556 32.9115C16.1575 32.9218 16.2594 32.9269 16.3638 32.9269H23.164C32.2157 32.9269 39.5788 25.5419 39.5788 16.4634C39.5788 7.38491 32.2157 0 23.164 0Z" fill="#00B08A"/>
</svg>
